<mxfile host="app.diagrams.net" modified="2022-06-15T06:52:06.682Z" agent="5.0 (Macintosh; Intel Mac OS X 10_15_7) AppleWebKit/537.36 (KHTML, like Gecko) Chrome/102.0.0.0 Safari/537.36" etag="casqd-Z-AvKSRAKfuM8K" version="20.0.1" type="github">
  <diagram id="C5RBs43oDa-KdzZeNtuy" name="Page-1">
    <mxGraphModel dx="2720" dy="1238" grid="1" gridSize="10" guides="1" tooltips="1" connect="1" arrows="1" fold="1" page="1" pageScale="1" pageWidth="980" pageHeight="1390" math="0" shadow="0">
      <root>
        <mxCell id="WIyWlLk6GJQsqaUBKTNV-0" />
        <mxCell id="WIyWlLk6GJQsqaUBKTNV-1" parent="WIyWlLk6GJQsqaUBKTNV-0" />
        <mxCell id="WIyWlLk6GJQsqaUBKTNV-2" value="" style="rounded=0;html=1;jettySize=auto;orthogonalLoop=1;fontSize=14;endArrow=block;endFill=0;endSize=8;strokeWidth=1;shadow=0;labelBackgroundColor=none;edgeStyle=orthogonalEdgeStyle;fontFamily=돋음체;fontSource=https%3A%2F%2Fcdn.jsdelivr.net%2Fgh%2Fprojectnoonnu%2Fnoonfonts_two%401.0%2FKoPubDotumMedium.woff&#39;;" parent="WIyWlLk6GJQsqaUBKTNV-1" target="WIyWlLk6GJQsqaUBKTNV-6" edge="1">
          <mxGeometry relative="1" as="geometry">
            <mxPoint x="-604" y="160" as="sourcePoint" />
          </mxGeometry>
        </mxCell>
        <mxCell id="WIyWlLk6GJQsqaUBKTNV-4" value="2" style="rounded=0;html=1;jettySize=auto;orthogonalLoop=1;fontSize=14;endArrow=classicThin;endFill=1;endSize=8;strokeWidth=1;shadow=0;labelBackgroundColor=none;edgeStyle=orthogonalEdgeStyle;fontFamily=돋음체;fontSource=https%3A%2F%2Fcdn.jsdelivr.net%2Fgh%2Fprojectnoonnu%2Fnoonfonts_two%401.0%2FKoPubDotumMedium.woff&#39;;exitX=0.5;exitY=1;exitDx=0;exitDy=0;" parent="WIyWlLk6GJQsqaUBKTNV-1" source="WIyWlLk6GJQsqaUBKTNV-6" edge="1">
          <mxGeometry y="20" relative="1" as="geometry">
            <mxPoint as="offset" />
            <mxPoint x="-603.5" y="307" as="sourcePoint" />
            <mxPoint x="-604" y="395" as="targetPoint" />
          </mxGeometry>
        </mxCell>
        <mxCell id="WIyWlLk6GJQsqaUBKTNV-6" value="&lt;p style=&quot;line-height: 1.4; font-size: 14px;&quot;&gt;&lt;font data-font-src=&quot;https://cdn.jsdelivr.net/gh/projectnoonnu/noonfonts_two@1.0/KoPubDotumMedium.woff&#39;&quot; style=&quot;font-size: 14px;&quot;&gt;1. 신규방문자&lt;br style=&quot;font-size: 14px;&quot;&gt;2. 회원방문&amp;nbsp;&lt;/font&gt;&lt;/p&gt;" style="rhombus;whiteSpace=wrap;html=1;shadow=0;fontFamily=돋음체;fontSize=14;align=center;strokeWidth=1;spacing=6;spacingTop=-4;fontSource=https%3A%2F%2Fcdn.jsdelivr.net%2Fgh%2Fprojectnoonnu%2Fnoonfonts_two%401.0%2FKoPubDotumMedium.woff&#39;;fillColor=#fff2cc;strokeColor=#d6b656;" parent="WIyWlLk6GJQsqaUBKTNV-1" vertex="1">
          <mxGeometry x="-690" y="212" width="172" height="98" as="geometry" />
        </mxCell>
        <mxCell id="9th_qqpQEsQk5X8nuHkO-0" value="&lt;font data-font-src=&quot;https://cdn.jsdelivr.net/gh/projectnoonnu/noonfonts_two@1.0/KoPubDotumMedium.woff&#39;&quot; style=&quot;font-size: 14px;&quot;&gt;셀립 홈페이지 방문&amp;nbsp;&lt;/font&gt;" style="ellipse;whiteSpace=wrap;html=1;fontSize=14;fontFamily=돋음체;fontSource=https%3A%2F%2Fcdn.jsdelivr.net%2Fgh%2Fprojectnoonnu%2Fnoonfonts_two%401.0%2FKoPubDotumMedium.woff&#39;;fillColor=#dae8fc;strokeColor=#6c8ebf;" vertex="1" parent="WIyWlLk6GJQsqaUBKTNV-1">
          <mxGeometry x="-663" y="80" width="120" height="80" as="geometry" />
        </mxCell>
        <mxCell id="9th_qqpQEsQk5X8nuHkO-2" value="로그인 화면&amp;nbsp;" style="rounded=0;whiteSpace=wrap;html=1;fontFamily=돋음체;fontSource=https%3A%2F%2Fcdn.jsdelivr.net%2Fgh%2Fprojectnoonnu%2Fnoonfonts_two%401.0%2FKoPubDotumMedium.woff&#39;;fontSize=14;fillColor=#dae8fc;strokeColor=#6c8ebf;" vertex="1" parent="WIyWlLk6GJQsqaUBKTNV-1">
          <mxGeometry x="-661" y="1060" width="120" height="60" as="geometry" />
        </mxCell>
        <mxCell id="9th_qqpQEsQk5X8nuHkO-3" value="&lt;b&gt;1&lt;/b&gt;" style="rounded=0;html=1;jettySize=auto;orthogonalLoop=1;fontSize=14;endArrow=classicThin;endFill=1;endSize=8;strokeWidth=1;shadow=0;labelBackgroundColor=none;edgeStyle=orthogonalEdgeStyle;fontFamily=돋음체;fontSource=https%3A%2F%2Fcdn.jsdelivr.net%2Fgh%2Fprojectnoonnu%2Fnoonfonts_two%401.0%2FKoPubDotumMedium.woff&#39;;" edge="1" parent="WIyWlLk6GJQsqaUBKTNV-1" source="WIyWlLk6GJQsqaUBKTNV-6">
          <mxGeometry y="20" relative="1" as="geometry">
            <mxPoint as="offset" />
            <mxPoint x="-319" y="261" as="sourcePoint" />
            <mxPoint x="-540" y="1090" as="targetPoint" />
            <Array as="points">
              <mxPoint x="-100" y="261" />
            </Array>
          </mxGeometry>
        </mxCell>
        <mxCell id="9th_qqpQEsQk5X8nuHkO-4" value="회원가입&lt;br&gt;&lt;font style=&quot;font-size: 12px;&quot;&gt;sns / 이메일 가입&lt;/font&gt;" style="rounded=1;whiteSpace=wrap;html=1;fontFamily=돋음체;fontSource=https%3A%2F%2Fcdn.jsdelivr.net%2Fgh%2Fprojectnoonnu%2Fnoonfonts_two%401.0%2FKoPubDotumMedium.woff&#39;;fontSize=14;fillColor=#d5e8d4;strokeColor=#82b366;" vertex="1" parent="WIyWlLk6GJQsqaUBKTNV-1">
          <mxGeometry x="-664" y="397" width="120" height="60" as="geometry" />
        </mxCell>
        <mxCell id="9th_qqpQEsQk5X8nuHkO-9" value="sns" style="rounded=0;html=1;jettySize=auto;orthogonalLoop=1;fontSize=14;endArrow=classicThin;endFill=1;endSize=8;strokeWidth=1;shadow=0;labelBackgroundColor=none;edgeStyle=orthogonalEdgeStyle;fontFamily=돋음체;fontSource=https%3A%2F%2Fcdn.jsdelivr.net%2Fgh%2Fprojectnoonnu%2Fnoonfonts_two%401.0%2FKoPubDotumMedium.woff&#39;;entryX=0;entryY=0.5;entryDx=0;entryDy=0;" edge="1" parent="WIyWlLk6GJQsqaUBKTNV-1" target="9th_qqpQEsQk5X8nuHkO-11">
          <mxGeometry x="-0.0667" y="17" relative="1" as="geometry">
            <mxPoint y="1" as="offset" />
            <mxPoint x="-543" y="426.5" as="sourcePoint" />
            <mxPoint x="-438" y="426.5" as="targetPoint" />
            <Array as="points">
              <mxPoint x="-379" y="426" />
            </Array>
          </mxGeometry>
        </mxCell>
        <mxCell id="9th_qqpQEsQk5X8nuHkO-11" value="sns 가입&lt;br&gt;Kakao talk, Facebook,&lt;br&gt;Gmail" style="rounded=1;whiteSpace=wrap;html=1;fontFamily=돋음체;fontSource=https%3A%2F%2Fcdn.jsdelivr.net%2Fgh%2Fprojectnoonnu%2Fnoonfonts_two%401.0%2FKoPubDotumMedium.woff&#39;;fontSize=14;fillColor=#d5e8d4;strokeColor=#82b366;" vertex="1" parent="WIyWlLk6GJQsqaUBKTNV-1">
          <mxGeometry x="-372" y="394" width="128" height="68" as="geometry" />
        </mxCell>
        <mxCell id="9th_qqpQEsQk5X8nuHkO-16" value="&lt;font style=&quot;font-size: 12px;&quot;&gt;이메일 가입&lt;/font&gt;" style="rounded=0;html=1;jettySize=auto;orthogonalLoop=1;fontSize=14;endArrow=classicThin;endFill=1;endSize=8;strokeWidth=1;shadow=0;labelBackgroundColor=none;edgeStyle=orthogonalEdgeStyle;fontFamily=돋음체;fontSource=https%3A%2F%2Fcdn.jsdelivr.net%2Fgh%2Fprojectnoonnu%2Fnoonfonts_two%401.0%2FKoPubDotumMedium.woff&#39;;" edge="1" parent="WIyWlLk6GJQsqaUBKTNV-1">
          <mxGeometry x="0.1" y="39" relative="1" as="geometry">
            <mxPoint y="1" as="offset" />
            <mxPoint x="-603" y="457" as="sourcePoint" />
            <mxPoint x="-603" y="517" as="targetPoint" />
          </mxGeometry>
        </mxCell>
        <mxCell id="9th_qqpQEsQk5X8nuHkO-22" value="&lt;font style=&quot;font-size: 13px;&quot;&gt;1. 이메일&amp;nbsp;&lt;br&gt;2. 이름&lt;br&gt;3. 성별&lt;br&gt;4. 전화번호&lt;/font&gt;" style="text;html=1;strokeColor=none;fillColor=#cce5ff;align=center;verticalAlign=middle;whiteSpace=wrap;rounded=0;fontFamily=돋음체;fontSource=https%3A%2F%2Fcdn.jsdelivr.net%2Fgh%2Fprojectnoonnu%2Fnoonfonts_two%401.0%2FKoPubDotumMedium.woff&#39;;fontSize=15;" vertex="1" parent="WIyWlLk6GJQsqaUBKTNV-1">
          <mxGeometry x="-787" y="671.5" width="100" height="80" as="geometry" />
        </mxCell>
        <mxCell id="9th_qqpQEsQk5X8nuHkO-60" value="" style="edgeStyle=orthogonalEdgeStyle;rounded=0;orthogonalLoop=1;jettySize=auto;html=1;fontFamily=돋음체;fontSource=https%3A%2F%2Fcdn.jsdelivr.net%2Fgh%2Fprojectnoonnu%2Fnoonfonts_two%401.0%2FKoPubDotumMedium.woff&#39;;fontSize=13;fontColor=#FF8000;" edge="1" parent="WIyWlLk6GJQsqaUBKTNV-1" source="9th_qqpQEsQk5X8nuHkO-32" target="9th_qqpQEsQk5X8nuHkO-49">
          <mxGeometry relative="1" as="geometry" />
        </mxCell>
        <mxCell id="9th_qqpQEsQk5X8nuHkO-32" value="&amp;nbsp; &amp;nbsp;개인정보 입력&amp;nbsp;&amp;nbsp;" style="shape=parallelogram;perimeter=parallelogramPerimeter;whiteSpace=wrap;html=1;fixedSize=1;fontFamily=돋음체;fontSource=https%3A%2F%2Fcdn.jsdelivr.net%2Fgh%2Fprojectnoonnu%2Fnoonfonts_two%401.0%2FKoPubDotumMedium.woff&#39;;fontSize=12;fillColor=#f8cecc;strokeColor=#b85450;" vertex="1" parent="WIyWlLk6GJQsqaUBKTNV-1">
          <mxGeometry x="-666" y="674" width="126" height="73" as="geometry" />
        </mxCell>
        <mxCell id="9th_qqpQEsQk5X8nuHkO-35" value="" style="rounded=0;html=1;jettySize=auto;orthogonalLoop=1;fontSize=14;endArrow=block;endFill=0;endSize=8;strokeWidth=1;shadow=0;labelBackgroundColor=none;edgeStyle=orthogonalEdgeStyle;fontFamily=돋음체;fontSource=https%3A%2F%2Fcdn.jsdelivr.net%2Fgh%2Fprojectnoonnu%2Fnoonfonts_two%401.0%2FKoPubDotumMedium.woff&#39;;exitX=0.5;exitY=1;exitDx=0;exitDy=0;entryX=1;entryY=0.5;entryDx=0;entryDy=0;" edge="1" parent="WIyWlLk6GJQsqaUBKTNV-1" source="9th_qqpQEsQk5X8nuHkO-11" target="9th_qqpQEsQk5X8nuHkO-32">
          <mxGeometry relative="1" as="geometry">
            <mxPoint x="-358.5300000000002" y="468" as="sourcePoint" />
            <mxPoint x="-540" y="710" as="targetPoint" />
            <Array as="points">
              <mxPoint x="-308" y="710" />
            </Array>
          </mxGeometry>
        </mxCell>
        <mxCell id="9th_qqpQEsQk5X8nuHkO-37" value="sns 인증에서&amp;nbsp;&lt;br&gt;부족한 정보 &lt;br&gt;입력 하도록&lt;br&gt;&amp;nbsp;" style="text;html=1;strokeColor=none;fillColor=none;align=center;verticalAlign=middle;whiteSpace=wrap;rounded=0;fontFamily=돋음체;fontSource=https%3A%2F%2Fcdn.jsdelivr.net%2Fgh%2Fprojectnoonnu%2Fnoonfonts_two%401.0%2FKoPubDotumMedium.woff&#39;;fontSize=15;" vertex="1" parent="WIyWlLk6GJQsqaUBKTNV-1">
          <mxGeometry x="-340" y="618" width="170" height="76" as="geometry" />
        </mxCell>
        <mxCell id="9th_qqpQEsQk5X8nuHkO-42" value="" style="endArrow=none;dashed=1;html=1;dashPattern=1 3;strokeWidth=2;rounded=0;fontFamily=돋음체;fontSource=https%3A%2F%2Fcdn.jsdelivr.net%2Fgh%2Fprojectnoonnu%2Fnoonfonts_two%401.0%2FKoPubDotumMedium.woff&#39;;fontSize=12;entryX=1;entryY=0.5;entryDx=0;entryDy=0;exitX=0;exitY=1;exitDx=0;exitDy=0;" edge="1" parent="WIyWlLk6GJQsqaUBKTNV-1" source="9th_qqpQEsQk5X8nuHkO-58" target="9th_qqpQEsQk5X8nuHkO-43">
          <mxGeometry width="50" height="50" relative="1" as="geometry">
            <mxPoint x="-553" y="553.58" as="sourcePoint" />
            <mxPoint x="-490" y="553.58" as="targetPoint" />
          </mxGeometry>
        </mxCell>
        <mxCell id="9th_qqpQEsQk5X8nuHkO-43" value="&lt;br&gt;*고려 사항&lt;br&gt;&lt;font color=&quot;#ff8000&quot;&gt;본인인증&lt;/font&gt;&amp;nbsp;,&lt;br&gt;&lt;font color=&quot;#ff8000&quot;&gt;14세 이상 회원&lt;br&gt;가입&lt;/font&gt; (정보통신망 전자거래법)&lt;br&gt;&amp;nbsp;" style="text;html=1;strokeColor=none;fillColor=#eeeeee;align=center;verticalAlign=middle;whiteSpace=wrap;rounded=0;fontFamily=돋음체;fontSource=https%3A%2F%2Fcdn.jsdelivr.net%2Fgh%2Fprojectnoonnu%2Fnoonfonts_two%401.0%2FKoPubDotumMedium.woff&#39;;fontSize=12;" vertex="1" parent="WIyWlLk6GJQsqaUBKTNV-1">
          <mxGeometry x="-930" y="593" width="90" height="81" as="geometry" />
        </mxCell>
        <mxCell id="9th_qqpQEsQk5X8nuHkO-44" value="- SNS 간편로그인&lt;br&gt;kakao , facebook, gmail&lt;br&gt;- 이메일 ID 로그인&amp;nbsp;" style="text;html=1;strokeColor=none;fillColor=none;align=center;verticalAlign=middle;whiteSpace=wrap;rounded=0;fontFamily=돋음체;fontSource=https%3A%2F%2Fcdn.jsdelivr.net%2Fgh%2Fprojectnoonnu%2Fnoonfonts_two%401.0%2FKoPubDotumMedium.woff&#39;;fontSize=15;" vertex="1" parent="WIyWlLk6GJQsqaUBKTNV-1">
          <mxGeometry x="-850" y="1052" width="170" height="76" as="geometry" />
        </mxCell>
        <mxCell id="9th_qqpQEsQk5X8nuHkO-61" value="" style="edgeStyle=orthogonalEdgeStyle;rounded=0;orthogonalLoop=1;jettySize=auto;html=1;fontFamily=돋음체;fontSource=https%3A%2F%2Fcdn.jsdelivr.net%2Fgh%2Fprojectnoonnu%2Fnoonfonts_two%401.0%2FKoPubDotumMedium.woff&#39;;fontSize=13;fontColor=#FF8000;" edge="1" parent="WIyWlLk6GJQsqaUBKTNV-1" source="9th_qqpQEsQk5X8nuHkO-49" target="9th_qqpQEsQk5X8nuHkO-54">
          <mxGeometry relative="1" as="geometry" />
        </mxCell>
        <mxCell id="9th_qqpQEsQk5X8nuHkO-49" value="회원 가입 완료" style="rounded=1;whiteSpace=wrap;html=1;fontFamily=돋음체;fontSource=https%3A%2F%2Fcdn.jsdelivr.net%2Fgh%2Fprojectnoonnu%2Fnoonfonts_two%401.0%2FKoPubDotumMedium.woff&#39;;fontSize=14;fillColor=#d5e8d4;strokeColor=#82b366;" vertex="1" parent="WIyWlLk6GJQsqaUBKTNV-1">
          <mxGeometry x="-662" y="809" width="120" height="60" as="geometry" />
        </mxCell>
        <mxCell id="9th_qqpQEsQk5X8nuHkO-69" value="" style="edgeStyle=orthogonalEdgeStyle;rounded=0;orthogonalLoop=1;jettySize=auto;html=1;fontFamily=돋음체;fontSource=https%3A%2F%2Fcdn.jsdelivr.net%2Fgh%2Fprojectnoonnu%2Fnoonfonts_two%401.0%2FKoPubDotumMedium.woff&#39;;fontSize=12;fontColor=#FF8000;endArrow=classicThin;endFill=1;strokeColor=default;" edge="1" parent="WIyWlLk6GJQsqaUBKTNV-1" source="9th_qqpQEsQk5X8nuHkO-54" target="9th_qqpQEsQk5X8nuHkO-2">
          <mxGeometry relative="1" as="geometry" />
        </mxCell>
        <mxCell id="9th_qqpQEsQk5X8nuHkO-54" value="가입&amp;nbsp; 완료 시 확인 &lt;br&gt;인증 메일 발송&amp;nbsp;" style="rounded=1;whiteSpace=wrap;html=1;fontFamily=돋음체;fontSource=https%3A%2F%2Fcdn.jsdelivr.net%2Fgh%2Fprojectnoonnu%2Fnoonfonts_two%401.0%2FKoPubDotumMedium.woff&#39;;fontSize=14;fillColor=#d5e8d4;strokeColor=#82b366;" vertex="1" parent="WIyWlLk6GJQsqaUBKTNV-1">
          <mxGeometry x="-661" y="933" width="120" height="57" as="geometry" />
        </mxCell>
        <mxCell id="9th_qqpQEsQk5X8nuHkO-58" value="&lt;p style=&quot;line-height: 1.4; font-size: 14px;&quot;&gt;&lt;span style=&quot;font-size: 12px;&quot;&gt;이용 약관 및&lt;/span&gt;&lt;br style=&quot;font-size: 12px;&quot;&gt;&lt;span style=&quot;font-size: 12px;&quot;&gt;개인정보 동의 체크&lt;/span&gt;&lt;br&gt;&lt;/p&gt;" style="rhombus;whiteSpace=wrap;html=1;shadow=0;fontFamily=돋음체;fontSize=14;align=center;strokeWidth=1;spacing=6;spacingTop=-4;fontSource=https%3A%2F%2Fcdn.jsdelivr.net%2Fgh%2Fprojectnoonnu%2Fnoonfonts_two%401.0%2FKoPubDotumMedium.woff&#39;;fillColor=#fff2cc;strokeColor=#d6b656;" vertex="1" parent="WIyWlLk6GJQsqaUBKTNV-1">
          <mxGeometry x="-673" y="520" width="140" height="98" as="geometry" />
        </mxCell>
        <mxCell id="9th_qqpQEsQk5X8nuHkO-65" value="&lt;span style=&quot;font-size: 12px;&quot;&gt;YES&lt;/span&gt;" style="rounded=0;html=1;jettySize=auto;orthogonalLoop=1;fontSize=14;endArrow=classicThin;endFill=1;endSize=8;strokeWidth=1;shadow=0;labelBackgroundColor=none;edgeStyle=orthogonalEdgeStyle;fontFamily=돋음체;fontSource=https%3A%2F%2Fcdn.jsdelivr.net%2Fgh%2Fprojectnoonnu%2Fnoonfonts_two%401.0%2FKoPubDotumMedium.woff&#39;;" edge="1" parent="WIyWlLk6GJQsqaUBKTNV-1">
          <mxGeometry x="-0.2667" y="23" relative="1" as="geometry">
            <mxPoint as="offset" />
            <mxPoint x="-602.59" y="616" as="sourcePoint" />
            <mxPoint x="-602.59" y="676" as="targetPoint" />
          </mxGeometry>
        </mxCell>
        <mxCell id="9th_qqpQEsQk5X8nuHkO-67" value="&lt;font style=&quot;font-size: 12px;&quot;&gt;NO&lt;/font&gt;" style="rounded=0;html=1;jettySize=auto;orthogonalLoop=1;fontSize=14;endArrow=classicThin;endFill=1;endSize=8;strokeWidth=1;shadow=0;labelBackgroundColor=none;edgeStyle=orthogonalEdgeStyle;fontFamily=돋음체;fontSource=https%3A%2F%2Fcdn.jsdelivr.net%2Fgh%2Fprojectnoonnu%2Fnoonfonts_two%401.0%2FKoPubDotumMedium.woff&#39;;" edge="1" parent="WIyWlLk6GJQsqaUBKTNV-1">
          <mxGeometry x="-0.0667" y="17" relative="1" as="geometry">
            <mxPoint y="1" as="offset" />
            <mxPoint x="-533" y="566.5" as="sourcePoint" />
            <mxPoint x="-480" y="568" as="targetPoint" />
            <Array as="points">
              <mxPoint x="-533" y="568" />
            </Array>
          </mxGeometry>
        </mxCell>
        <mxCell id="9th_qqpQEsQk5X8nuHkO-68" value="필수 약관 미동의 alert" style="rounded=0;whiteSpace=wrap;html=1;fontFamily=돋음체;fontSource=https%3A%2F%2Fcdn.jsdelivr.net%2Fgh%2Fprojectnoonnu%2Fnoonfonts_two%401.0%2FKoPubDotumMedium.woff&#39;;fontSize=12;fillColor=#fff2cc;strokeColor=#d6b656;" vertex="1" parent="WIyWlLk6GJQsqaUBKTNV-1">
          <mxGeometry x="-480" y="540" width="120" height="60" as="geometry" />
        </mxCell>
        <mxCell id="9th_qqpQEsQk5X8nuHkO-75" value="" style="endArrow=none;dashed=1;html=1;dashPattern=1 3;strokeWidth=2;rounded=0;fontFamily=돋음체;fontSource=https%3A%2F%2Fcdn.jsdelivr.net%2Fgh%2Fprojectnoonnu%2Fnoonfonts_two%401.0%2FKoPubDotumMedium.woff&#39;;fontSize=12;fontColor=#FF8000;" edge="1" parent="WIyWlLk6GJQsqaUBKTNV-1">
          <mxGeometry width="50" height="50" relative="1" as="geometry">
            <mxPoint x="-255.5" y="1140" as="sourcePoint" />
            <mxPoint x="-255.5" y="1090" as="targetPoint" />
          </mxGeometry>
        </mxCell>
        <mxCell id="9th_qqpQEsQk5X8nuHkO-78" value="" style="edgeStyle=orthogonalEdgeStyle;rounded=0;orthogonalLoop=1;jettySize=auto;html=1;fontFamily=돋음체;fontSource=https%3A%2F%2Fcdn.jsdelivr.net%2Fgh%2Fprojectnoonnu%2Fnoonfonts_two%401.0%2FKoPubDotumMedium.woff&#39;;fontSize=12;fontColor=#FF8000;endArrow=classicThin;endFill=1;strokeColor=default;" edge="1" parent="WIyWlLk6GJQsqaUBKTNV-1">
          <mxGeometry relative="1" as="geometry">
            <mxPoint x="-255.5" y="1194" as="sourcePoint" />
            <mxPoint x="-255.50000000000023" y="1225" as="targetPoint" />
          </mxGeometry>
        </mxCell>
        <mxCell id="9th_qqpQEsQk5X8nuHkO-76" value="ID / Password &lt;br&gt;분실 회원" style="rounded=1;whiteSpace=wrap;html=1;fontFamily=돋음체;fontSource=https%3A%2F%2Fcdn.jsdelivr.net%2Fgh%2Fprojectnoonnu%2Fnoonfonts_two%401.0%2FKoPubDotumMedium.woff&#39;;fontSize=14;fillColor=#d5e8d4;strokeColor=#82b366;" vertex="1" parent="WIyWlLk6GJQsqaUBKTNV-1">
          <mxGeometry x="-315.5" y="1140" width="120" height="50" as="geometry" />
        </mxCell>
        <mxCell id="9th_qqpQEsQk5X8nuHkO-79" value="&lt;p style=&quot;line-height: 1.4; font-size: 14px;&quot;&gt;1. ID 찾기&amp;nbsp;&lt;br&gt;2. Password 찾기&lt;br&gt;&lt;/p&gt;" style="rhombus;whiteSpace=wrap;html=1;shadow=0;fontFamily=돋음체;fontSize=14;align=center;strokeWidth=1;spacing=6;spacingTop=-4;fontSource=https%3A%2F%2Fcdn.jsdelivr.net%2Fgh%2Fprojectnoonnu%2Fnoonfonts_two%401.0%2FKoPubDotumMedium.woff&#39;;fillColor=#fff2cc;strokeColor=#d6b656;" vertex="1" parent="WIyWlLk6GJQsqaUBKTNV-1">
          <mxGeometry x="-321.5" y="1224" width="133" height="103" as="geometry" />
        </mxCell>
        <mxCell id="9th_qqpQEsQk5X8nuHkO-82" value="&lt;span style=&quot;font-size: 12px;&quot;&gt;1&lt;/span&gt;" style="rounded=0;html=1;jettySize=auto;orthogonalLoop=1;fontSize=14;endArrow=classicThin;endFill=1;endSize=8;strokeWidth=1;shadow=0;labelBackgroundColor=none;edgeStyle=orthogonalEdgeStyle;fontFamily=돋음체;fontSource=https%3A%2F%2Fcdn.jsdelivr.net%2Fgh%2Fprojectnoonnu%2Fnoonfonts_two%401.0%2FKoPubDotumMedium.woff&#39;;exitX=0;exitY=0.5;exitDx=0;exitDy=0;" edge="1" parent="WIyWlLk6GJQsqaUBKTNV-1" source="9th_qqpQEsQk5X8nuHkO-79">
          <mxGeometry x="0.2983" y="-10" relative="1" as="geometry">
            <mxPoint as="offset" />
            <mxPoint x="-328.5900000000004" y="1248.5699999999997" as="sourcePoint" />
            <mxPoint x="-400" y="1240" as="targetPoint" />
            <Array as="points">
              <mxPoint x="-360" y="1276" />
              <mxPoint x="-360" y="1240" />
            </Array>
          </mxGeometry>
        </mxCell>
        <mxCell id="9th_qqpQEsQk5X8nuHkO-93" value="" style="edgeStyle=orthogonalEdgeStyle;rounded=0;orthogonalLoop=1;jettySize=auto;html=1;fontFamily=돋음체;fontSource=https%3A%2F%2Fcdn.jsdelivr.net%2Fgh%2Fprojectnoonnu%2Fnoonfonts_two%401.0%2FKoPubDotumMedium.woff&#39;;fontSize=13;fontColor=#FF8000;endArrow=classicThin;endFill=1;strokeColor=default;entryX=0.5;entryY=1;entryDx=0;entryDy=0;" edge="1" parent="WIyWlLk6GJQsqaUBKTNV-1" source="9th_qqpQEsQk5X8nuHkO-83" target="9th_qqpQEsQk5X8nuHkO-2">
          <mxGeometry relative="1" as="geometry">
            <mxPoint x="-617" y="1244" as="targetPoint" />
          </mxGeometry>
        </mxCell>
        <mxCell id="9th_qqpQEsQk5X8nuHkO-83" value="ID 찾기" style="rounded=1;whiteSpace=wrap;html=1;fontFamily=돋음체;fontSource=https%3A%2F%2Fcdn.jsdelivr.net%2Fgh%2Fprojectnoonnu%2Fnoonfonts_two%401.0%2FKoPubDotumMedium.woff&#39;;fontSize=14;fillColor=#d5e8d4;strokeColor=#82b366;" vertex="1" parent="WIyWlLk6GJQsqaUBKTNV-1">
          <mxGeometry x="-518" y="1219" width="118" height="50" as="geometry" />
        </mxCell>
        <mxCell id="9th_qqpQEsQk5X8nuHkO-95" value="" style="edgeStyle=orthogonalEdgeStyle;rounded=0;orthogonalLoop=1;jettySize=auto;html=1;fontFamily=돋음체;fontSource=https%3A%2F%2Fcdn.jsdelivr.net%2Fgh%2Fprojectnoonnu%2Fnoonfonts_two%401.0%2FKoPubDotumMedium.woff&#39;;fontSize=13;fontColor=#FF8000;endArrow=classicThin;endFill=1;strokeColor=default;" edge="1" parent="WIyWlLk6GJQsqaUBKTNV-1" source="9th_qqpQEsQk5X8nuHkO-87" target="9th_qqpQEsQk5X8nuHkO-94">
          <mxGeometry relative="1" as="geometry" />
        </mxCell>
        <mxCell id="9th_qqpQEsQk5X8nuHkO-87" value="&lt;font style=&quot;font-size: 13px;&quot;&gt;PW 찾기&amp;nbsp;&lt;br&gt;-&amp;gt; 인증후&lt;/font&gt;&amp;nbsp;" style="rounded=1;whiteSpace=wrap;html=1;fontFamily=돋음체;fontSource=https%3A%2F%2Fcdn.jsdelivr.net%2Fgh%2Fprojectnoonnu%2Fnoonfonts_two%401.0%2FKoPubDotumMedium.woff&#39;;fontSize=14;fillColor=#d5e8d4;strokeColor=#82b366;" vertex="1" parent="WIyWlLk6GJQsqaUBKTNV-1">
          <mxGeometry x="-520" y="1297" width="122" height="50" as="geometry" />
        </mxCell>
        <mxCell id="9th_qqpQEsQk5X8nuHkO-90" value="&lt;span style=&quot;font-size: 12px;&quot;&gt;2&lt;/span&gt;" style="rounded=0;html=1;jettySize=auto;orthogonalLoop=1;fontSize=14;endArrow=classicThin;endFill=1;endSize=8;strokeWidth=1;shadow=0;labelBackgroundColor=none;edgeStyle=orthogonalEdgeStyle;fontFamily=돋음체;fontSource=https%3A%2F%2Fcdn.jsdelivr.net%2Fgh%2Fprojectnoonnu%2Fnoonfonts_two%401.0%2FKoPubDotumMedium.woff&#39;;exitX=0;exitY=0.5;exitDx=0;exitDy=0;" edge="1" parent="WIyWlLk6GJQsqaUBKTNV-1" source="9th_qqpQEsQk5X8nuHkO-79">
          <mxGeometry x="0.3495" y="10" relative="1" as="geometry">
            <mxPoint as="offset" />
            <mxPoint x="-303.5" y="1322.4600000000003" as="sourcePoint" />
            <mxPoint x="-400" y="1320" as="targetPoint" />
            <Array as="points">
              <mxPoint x="-360" y="1276" />
              <mxPoint x="-360" y="1320" />
            </Array>
          </mxGeometry>
        </mxCell>
        <mxCell id="9th_qqpQEsQk5X8nuHkO-94" value="" style="shape=waypoint;sketch=0;size=6;pointerEvents=1;points=[];fillColor=#d5e8d4;resizable=0;rotatable=0;perimeter=centerPerimeter;snapToPoint=1;fontSize=14;fontFamily=돋음체;strokeColor=#82b366;rounded=1;fontSource=https%3A%2F%2Fcdn.jsdelivr.net%2Fgh%2Fprojectnoonnu%2Fnoonfonts_two%401.0%2FKoPubDotumMedium.woff&#39;;" vertex="1" parent="WIyWlLk6GJQsqaUBKTNV-1">
          <mxGeometry x="-621" y="1160" width="40" height="40" as="geometry" />
        </mxCell>
      </root>
    </mxGraphModel>
  </diagram>
</mxfile>
